<svg xmlns="http://www.w3.org/2000/svg" xmlns:xlink="http://www.w3.org/1999/xlink" width="218px" height="27px" viewBox="0 0 218 27"><title>logo</title><g id="logo" stroke="none" stroke-width="1" fill="none" fill-rule="evenodd"><path d="M5.23653285,3.31852158 C9.25946906,-0.936198512 15.970504,-1.12489437 20.2252241,2.89833899 L20.2252241,2.89833899 L14.6603307,8.78386673 C18.8247146,12.8151234 18.9825059,19.4578118 14.9889884,23.6813302 C12.9035278,25.8874374 10.095674,27 7.28247138,27 C4.66836518,27 2.04920727,26.0392855 0,24.1021071 L0,24.1021071 L5.56489336,18.2168765 C1.40050955,14.1847284 1.24301537,7.54203999 5.23653285,3.31852158 Z M59.2186729,8.32784679 C61.5923776,8.32784679 63.4404083,8.96644111 64.7621708,10.2430354 C66.0830418,11.5199269 66.7448145,13.312389 66.7448145,15.6186386 C66.7448145,15.9779036 66.68776,16.1963154 66.5763254,16.2738738 C66.4645937,16.3529181 66.1510911,16.3918459 65.6355206,16.3918459 L65.6355206,16.3918459 L54.8174535,16.3918459 C54.7274143,16.5933196 54.6828405,16.9629852 54.6828405,17.5002483 C54.6828405,19.6959549 55.1582946,21.4313624 56.1106887,22.7082539 C57.0630827,23.9842539 58.3560208,24.6228482 59.9909887,24.6228482 C60.9323878,24.6228482 61.8669523,24.4097854 62.7967623,23.9842539 C63.725978,23.559614 64.6275578,22.9548957 65.5009076,22.1700993 L65.5009076,22.1700993 L66.4417125,23.3459568 C64.4037972,25.6533951 61.8610092,26.8066685 58.8151312,26.8066685 C57.4262108,26.8066685 56.1662574,26.5885539 55.0358652,26.1514333 C53.9045816,25.7149069 52.9358438,25.0991938 52.1290576,24.3034025 C51.3228657,23.509097 50.6955634,22.5629433 50.2480422,21.4649414 C49.7993324,20.3675338 49.5761661,19.1462111 49.5761661,17.802756 C49.5761661,16.4138356 49.8112187,15.1434817 50.2819183,13.9896139 C50.7520236,12.8357462 51.4182536,11.8390755 52.2806086,10.9993046 C53.1429635,10.1589395 54.1622183,9.50429859 55.3380757,9.03359901 C56.5139332,8.56349374 57.8077628,8.32784679 59.2186729,8.32784679 Z M141.296497,4.59874124 L141.296497,8.66387399 L145.16075,8.66387399 L145.16075,10.5119047 L141.296497,10.5119047 L141.296497,20.8265848 C141.296497,22.2155052 141.448048,23.2002895 141.750258,23.783018 C142.052766,24.3654493 142.561799,24.6563678 143.27914,24.6563678 C144.15249,24.6563678 144.813074,24.2531232 145.26119,23.4469313 L145.26119,23.4469313 L145.966942,24.4213151 C145.339045,26.0120063 143.86068,26.806609 141.532143,26.806609 C139.98662,26.806609 138.782236,26.4485326 137.920475,25.7311912 C137.057526,25.0144441 136.626646,24.0073729 136.626646,22.7081945 L136.626646,22.7081945 L136.626646,10.5119047 L134.173897,10.5119047 L134.173897,8.99996063 C135.518243,8.61930017 136.643584,8.04221773 137.55081,7.26990193 C138.457738,6.49728898 139.13526,5.60700114 139.583079,4.59874124 L139.583079,4.59874124 L141.296497,4.59874124 Z M154.130608,4.59874124 L154.130608,8.66387399 L157.994861,8.66387399 L157.994861,10.5119047 L154.130608,10.5119047 L154.130608,20.8265848 C154.130608,22.2155052 154.282159,23.2002895 154.58437,23.783018 C154.886877,24.3654493 155.39591,24.6563678 156.113252,24.6563678 C156.986601,24.6563678 157.647186,24.2531232 158.095301,23.4469313 L158.095301,23.4469313 L158.801053,24.4213151 C158.173157,26.0120063 156.694792,26.806609 154.366255,26.806609 C152.820732,26.806609 151.616347,26.4485326 150.754587,25.7311912 C149.891934,25.0144441 149.460757,24.0073729 149.460757,22.7081945 L149.460757,22.7081945 L149.460757,10.5119047 L147.008008,10.5119047 L147.008008,8.99996063 C148.352355,8.61930017 149.477695,8.04221773 150.384921,7.26990193 C151.29185,6.49728898 151.969372,5.60700114 152.41719,4.59874124 L152.41719,4.59874124 L154.130608,4.59874124 Z M169.921955,8.32784679 C172.296254,8.32784679 174.143096,8.96644111 175.465156,10.2430354 C176.786621,11.5199269 177.448394,13.312389 177.448394,15.6186386 C177.448394,15.9779036 177.391339,16.1963154 177.27931,16.2738738 C177.166984,16.3529181 176.854076,16.3918459 176.338505,16.3918459 L176.338505,16.3918459 L165.520141,16.3918459 C165.430696,16.5933196 165.386123,16.9629852 165.386123,17.5002483 C165.386123,19.6959549 165.861577,21.4313624 166.813971,22.7082539 C167.76577,23.9842539 169.059303,24.6228482 170.694271,24.6228482 C171.635076,24.6228482 172.570234,24.4097854 173.500044,23.9842539 C174.429854,23.559614 175.331731,22.9548957 176.205081,22.1700993 L176.205081,22.1700993 L177.145886,23.3459568 C175.107079,25.6533951 172.564886,26.8066685 169.518413,26.8066685 C168.130087,26.8066685 166.869539,26.5885539 165.739147,26.1514333 C164.607864,25.7149069 163.639126,25.0991938 162.83234,24.3034025 C162.026148,23.509097 161.398251,22.5629433 160.951324,21.4649414 C160.502614,20.3675338 160.279151,19.1462111 160.279151,17.802756 C160.279151,16.4138356 160.514204,15.1434817 160.984606,13.9896139 C161.455008,12.8357462 162.121536,11.8390755 162.983891,10.9993046 C163.845651,10.1589395 164.864906,9.50429859 166.041358,9.03359901 C167.217215,8.56349374 168.510451,8.32784679 169.921955,8.32784679 Z M210.86533,8.29480273 C211.560088,8.29480273 212.248902,8.39524241 212.931476,8.59731042 C213.615238,8.79848694 214.21431,9.07900488 214.728989,9.43708126 L214.728989,9.43708126 L215.333707,8.63029505 L216.207354,8.63029505 L216.207354,13.7039849 L214.897775,13.7039849 C214.381313,12.4270934 213.850291,11.5082783 213.301141,10.9490254 C212.752883,10.3894753 212.086653,10.1089574 211.303045,10.1089574 C210.675149,10.1089574 210.177705,10.2768521 209.808039,10.6129387 C209.437482,10.9490254 209.253541,11.3968437 209.253541,11.9563938 C209.253541,12.5842904 209.527521,13.1777166 210.076076,13.7369695 C210.625226,14.2971139 211.537503,14.9134213 212.814989,15.5850002 C213.710329,16.0776896 214.482942,16.559384 215.132234,17.0294893 C215.781823,17.5001889 216.308388,17.9768316 216.712227,18.4579318 C217.114283,18.9396262 217.411442,19.4436076 217.602515,19.9698759 C217.7924,20.495847 217.888085,21.0616374 217.888085,21.6663556 C217.888085,22.4505578 217.741883,23.15631 217.45037,23.783018 C217.159748,24.4097259 216.745806,24.9481777 216.207354,25.3956989 C215.669794,25.8438144 215.026148,26.1903016 214.276416,26.4369435 C213.524605,26.6835853 212.691371,26.806609 211.772556,26.806609 C210.809762,26.806609 209.912936,26.6773449 209.084755,26.4203026 C208.255979,26.162963 207.57281,25.7882457 207.03525,25.2946649 L207.03525,25.2946649 L206.295919,26.4705224 L205.254674,26.4705224 L205.254674,20.3558852 L206.665585,20.3558852 C207.046542,21.9688633 207.5948,23.1447208 208.312736,23.884052 C209.028889,24.6227888 209.958104,24.9924544 211.100383,24.9924544 C211.929753,24.9924544 212.573399,24.819508 213.03251,24.4718321 C213.491026,24.1241563 213.721918,23.648405 213.721918,23.0436868 C213.721918,22.417276 213.441697,21.8069118 212.882147,21.2131884 C212.321706,20.6200594 211.41448,19.9868139 210.160767,19.3146407 C208.458047,18.3958256 207.236724,17.483548 206.497987,16.5763221 C205.758656,15.6690962 205.389882,14.6441954 205.389882,13.5019169 C205.389882,12.76318 205.528655,12.0743659 205.808876,11.4357715 C206.089394,10.7974744 206.470054,10.2432732 206.951154,9.7731679 C207.432849,9.30246831 208.009931,8.93844875 208.682401,8.68081205 C209.353386,8.42376966 210.081722,8.29480273 210.86533,8.29480273 Z M125.29702,8.32781708 L135.79683,26.5062112 L114.79721,26.5062112 L125.29702,8.32781708 Z M46.6194655,8.66381456 L46.6194655,9.43702183 L36.2718008,24.6563083 L39.2282339,24.6563083 C40.3925022,24.6563083 41.3558912,24.6057913 42.1175092,24.5053516 C42.8788301,24.4046148 43.4954347,24.2147303 43.96554,23.9339152 C44.4362396,23.6548831 44.8053108,23.2623363 45.0739424,22.7580577 C45.342574,22.2543735 45.5782209,21.5884406 45.7802889,20.7590703 L45.7802889,20.7590703 L47.090165,20.7590703 L46.6875148,26.4707601 L30.0894114,26.4707601 L30.0894114,25.6981472 L40.6055651,10.4443903 L37.5151133,10.4443903 C36.5514272,10.4443903 35.7675222,10.4845067 35.1625069,10.5623623 C34.5577887,10.6414066 34.0710425,10.8090041 33.7013769,11.0660465 C33.3320085,11.3236832 33.0511934,11.6773022 32.8613089,12.1248234 C32.6711273,12.5729389 32.5085814,13.166068 32.3745628,13.9053991 L32.3745628,13.9053991 L31.0640923,13.9053991 L31.4673369,8.66381456 L46.6194655,8.66381456 Z M27.333085,8.664082 L27.333085,26.4707304 L22.5785437,26.4707304 L22.5785437,8.664082 L27.333085,8.664082 Z M200.483879,8.32799537 C201.335239,8.32799537 202.029402,8.54135541 202.566962,8.96629253 C203.104522,9.39182397 203.373154,9.93027577 203.373154,10.5792706 C203.373154,11.2966121 203.166628,11.9013303 202.752686,12.3934253 C202.337852,12.8867089 201.771765,13.1324593 201.055018,13.1324593 C200.718931,13.1324593 200.416721,13.0655986 200.147792,12.9309856 C199.87916,12.796967 199.638462,12.645416 199.426587,12.4775212 C199.212336,12.3093293 198.999867,12.153321 198.787399,12.0068217 C198.573742,11.8612138 198.355627,11.7887071 198.132164,11.7887071 C197.706929,11.7887071 197.303388,12.0689278 196.922727,12.6284779 C196.541472,13.1892166 196.228564,13.9389483 195.981922,14.8797532 C195.803033,15.5513321 195.657425,16.3076014 195.54599,17.1473722 C195.432773,17.9871431 195.377204,18.8224565 195.377204,19.6506382 L195.377204,19.6506382 L195.377204,21.263022 C195.377204,22.1363718 195.416132,22.8254831 195.494879,23.3291673 C195.573329,23.8334458 195.735281,24.2200495 195.981922,24.488681 C196.228564,24.7573126 196.586641,24.9314477 197.057934,25.0093033 C197.527445,25.0880504 198.154748,25.1263839 198.938356,25.1263839 L198.938356,25.1263839 L198.938356,26.4707304 L187.717044,26.4707304 L187.717044,25.1263839 C188.388623,25.0824044 188.926777,25.014355 189.329428,24.9252074 C189.732969,24.8363569 190.03518,24.6562786 190.236654,24.387647 C190.438722,24.1190155 190.567391,23.7324118 190.623257,23.2287276 C190.678826,22.7244491 190.707353,22.0475213 190.707353,21.1961612 L190.707353,21.1961612 L190.707353,17.0968552 C190.707353,15.7079348 190.673774,14.5995324 190.606319,13.7707565 C190.538864,12.9425748 190.393851,12.3039805 190.169199,11.8561621 C189.945735,11.4086409 189.626586,11.1114821 189.212347,10.9658743 C188.797216,10.8205636 188.254604,10.7468682 187.582431,10.7468682 L187.582431,10.7468682 L187.582431,9.57101075 L194.302381,8.32799537 L194.839644,12.1919516 L194.973662,12.1919516 C195.578381,11.0045049 196.374172,10.0637001 197.359253,9.36953706 C198.345226,8.67537404 199.386471,8.32799537 200.483879,8.32799537 Z M103.466246,8.32790622 C104.810296,8.32790622 105.980507,8.49609812 106.976881,8.83218475 C107.974146,9.16827139 108.752405,9.64996585 109.312549,10.2766738 C109.760665,10.7922444 110.090808,11.4644176 110.303277,12.2925993 C110.516339,13.1213753 110.622425,14.275243 110.622425,15.753311 L110.622425,15.753311 L110.622425,20.9268462 C110.622425,21.8456613 110.650952,22.5734032 110.707115,23.1109636 C110.762387,23.6482267 110.891057,24.0630604 111.093125,24.3539789 C111.295193,24.6457889 111.585814,24.8362677 111.966475,24.9251182 C112.347432,25.014563 112.8737,25.0823152 113.545874,25.1265919 L113.545874,25.1265919 L113.545874,26.4706413 L102.928686,26.4706413 L102.928686,25.1265919 C103.600859,25.1048993 104.132476,25.0427931 104.524726,24.9420563 C104.916084,24.8410223 105.218295,24.6511378 105.431952,24.370917 C105.64442,24.0903991 105.778439,23.7052812 105.834899,23.2119976 C105.891062,22.7196054 105.918995,22.0477293 105.918995,21.1963692 L105.918995,21.1963692 L105.918995,16.7945555 C105.918995,15.6302872 105.85154,14.6443143 105.717522,13.8381224 C105.582909,13.0319305 105.369846,12.3817469 105.079224,11.8896519 C104.787712,11.3969626 104.401108,11.0439379 103.920008,10.8311722 C103.437719,10.6181093 102.849939,10.5117264 102.15637,10.5117264 C101.371574,10.5117264 100.727928,10.7022053 100.224243,11.0828657 C99.7205593,11.4644176 99.3000795,11.9565127 98.96429,12.5612309 C98.3815616,13.6146589 98.0906431,14.9251293 98.0906431,16.4920478 L98.0906431,16.4920478 L98.0906431,20.9268462 C98.0906431,21.8456613 98.1126328,22.5734032 98.1580981,23.1109636 C98.202672,23.6482267 98.3256957,24.0630604 98.5277637,24.3539789 C98.7292374,24.6457889 99.0258019,24.8362677 99.4180516,24.9251182 C99.8091126,25.014563 100.352913,25.0823152 101.047076,25.1265919 L101.047076,25.1265919 L101.047076,26.4706413 L90.3972011,26.4706413 L90.3972011,25.1265919 C91.0684828,25.0823152 91.6006943,25.014563 91.9926468,24.9251182 C92.3843021,24.8362677 92.6868098,24.6564866 92.8995755,24.3875579 C93.1126384,24.1189263 93.2466571,23.7326198 93.3031172,23.2286385 C93.3586859,22.7243599 93.3872132,22.0477293 93.3872132,21.1963692 L93.3872132,21.1963692 L93.3872132,16.7945555 C93.3872132,15.6302872 93.3197581,14.6443143 93.1851452,13.8381224 C93.0511265,13.0319305 92.833012,12.3817469 92.5305043,11.8896519 C92.2282937,11.3969626 91.8301009,11.0439379 91.3380059,10.8311722 C90.8444251,10.6181093 90.228712,10.5117264 89.4899752,10.5117264 C88.7503468,10.5117264 88.1399826,10.6918047 87.6582881,11.0492868 C87.1765937,11.4085518 86.7795895,11.8896519 86.4654926,12.4943701 C86.1748713,13.0319305 85.9502192,13.6482379 85.7939137,14.3418066 C85.637311,15.0371582 85.5582667,15.753311 85.5582667,16.4920478 L85.5582667,16.4920478 L85.5582667,20.9268462 C85.5582667,21.867651 85.5808508,22.6072794 85.6263161,23.1445425 C85.6702956,23.6821028 85.7939137,24.0903991 85.9953873,24.370917 C86.1974553,24.6511378 86.4880767,24.8362677 86.8687371,24.9251182 C87.2496948,25.014563 87.775963,25.0823152 88.4481363,25.1265919 L88.4481363,25.1265919 L88.4481363,26.4706413 L77.8312457,26.4706413 L77.8312457,25.1265919 C78.5028247,25.0823152 79.0409793,25.014563 79.4436295,24.9251182 C79.8471712,24.8362677 80.1493817,24.6564866 80.3508554,24.3875579 C80.5529234,24.1189263 80.6869421,23.7326198 80.7541,23.2286385 C80.821555,22.7243599 80.855134,22.0477293 80.855134,21.1963692 L80.855134,21.1963692 L80.855134,17.0296082 C80.855134,15.753311 80.8384931,14.6894824 80.804617,13.8381224 C80.771038,12.9867623 80.7089318,12.4052225 80.619487,12.0911256 C80.5529234,11.8002071 80.4685303,11.5705033 80.3677935,11.4023115 C80.2667595,11.2344167 80.1098596,11.0998038 79.8976882,10.9993641 C79.684031,10.8983301 79.4100506,10.8311722 79.0739639,10.7972961 C78.7384716,10.7637171 78.301351,10.7467791 77.7640878,10.7467791 L77.7640878,10.7467791 L77.7640878,9.6047977 L84.2483906,8.32790622 L84.651338,11.2513548 L84.8531088,11.2513548 C85.7939137,10.1991154 86.7400674,9.44849216 87.6924614,9.00007949 C88.6442611,8.55196398 89.7470175,8.32790622 91.0019193,8.32790622 C92.4799873,8.32790622 93.7007157,8.58554293 94.6641047,9.10081633 C95.6263049,9.6163869 96.3546412,10.3557181 96.8476277,11.3185127 L96.8476277,11.3185127 L96.9822407,11.3185127 C97.7884326,10.3777078 98.7512272,9.64461699 99.8712188,9.11775439 C100.990913,8.59208042 102.189355,8.32790622 103.466246,8.32790622 Z M14.2764015,13.3286138 L4.61309363,23.5485002 C5.45761902,23.8637857 6.35949606,24.0284117 7.28247138,24.0284117 C9.40329393,24.0284117 11.3731598,23.1806176 12.8292381,21.6401462 C14.2300448,20.1591066 14.9699702,18.2210368 14.9129157,16.1834187 C14.8849828,15.1834792 14.6668682,14.217713 14.2764015,13.3286138 L14.2764015,13.3286138 Z M125.29702,14.2692107 L119.945189,23.5346229 L130.64885,23.5346229 L125.29702,14.2692107 Z M59.0840599,10.2769115 C58.1203738,10.2769115 57.2639621,10.6751044 56.5139332,11.4694099 C55.7630129,12.2652013 55.2759695,13.2785129 55.0525061,14.5102362 L55.0525061,14.5102362 L59.9238308,14.5102362 C60.8191703,14.5102362 61.3968471,14.4597192 61.6544838,14.3586852 C61.9115262,14.2582455 62.0404931,14.0181412 62.0404931,13.6365892 C62.0404931,12.6518049 61.7605695,11.8444244 61.2007222,11.2177164 C60.6411722,10.5907113 59.9348256,10.2769115 59.0840599,10.2769115 Z M169.787342,10.2769115 C168.82425,10.2769115 167.967838,10.6751044 167.217215,11.4694099 C166.466295,12.2652013 165.979252,13.2785129 165.755194,14.5102362 L165.755194,14.5102362 L170.627113,14.5102362 C171.522452,14.5102362 172.100129,14.4597192 172.357172,14.3586852 C172.615403,14.2582455 172.743775,14.0181412 172.743775,13.6365892 C172.743775,12.6518049 172.463257,11.8444244 171.904004,11.2177164 C171.34386,10.5907113 170.638702,10.2769115 169.787342,10.2769115 Z" id="Combined-Shape" fill="#FFFFFF"></path><path d="M182.050225,21.7336621 C181.332884,21.7336621 180.733811,21.9856528 180.252711,22.489337 C179.770423,22.9936155 179.530318,23.6042769 179.530318,24.3204297 C179.530318,25.0145927 179.770423,25.6023729 180.252711,26.0840673 C180.733811,26.5657618 181.332884,26.8067576 182.050225,26.8067576 C182.788962,26.8067576 183.405566,26.5657618 183.897661,26.0840673 C184.390945,25.6023729 184.636993,25.0145927 184.636993,24.3204297 C184.636993,23.6042769 184.390945,22.9936155 183.897661,22.489337 C183.405566,21.9856528 182.788962,21.7336621 182.050225,21.7336621" id="Fill-18" fill="#FFFFFF"></path></g></svg>